Coordinates
version=1
nRows=65
nColumns=12
inDegrees=yes

Units are S.I. units (second, meters, Newtons, ...)
Angles are in degrees

endheader
time	SC_y	SC_z	SC_x	AC_y	AC_z	AC_x	GH_y	GH_z	GH_yy	EL_x	PS_y
       0.0               -41.0          3.965           26.5          58.69          4.154         -16.42          89.65         -15.31          -64.6           35.3          147.6
   0.02039               -41.0          3.966           26.5          58.69          4.153         -16.42          89.63          -15.3         -64.61          35.31          147.6
   0.04078               -41.0          3.967           26.5          58.69          4.151         -16.42          89.61          -15.3         -64.63          35.32          147.6
   0.06117               -41.0          3.968          26.49          58.69          4.149         -16.42           89.6          -15.3         -64.64          35.33          147.6
   0.08156              -40.99          3.969          26.49          58.69          4.148         -16.42          89.58          -15.3         -64.66          35.35          147.6
     0.102              -40.99           3.97          26.49          58.69          4.146         -16.41          89.56          -15.3         -64.68          35.36          147.6
    0.1223              -40.99          3.971          26.48          58.69          4.144         -16.41          89.54          -15.3          -64.7          35.37          147.6
    0.1427              -40.98          3.973          26.48          58.69          4.141         -16.41          89.51          -15.3         -64.72          35.39          147.6
    0.1631              -40.98          3.974          26.48          58.69          4.139         -16.41          89.49          -15.3         -64.74          35.41          147.6
    0.1835              -40.97          3.975          26.47          58.69          4.137          -16.4          89.46         -15.29         -64.77          35.42          147.6
    0.2039              -40.97          3.977          26.47          58.69          4.134          -16.4          89.43         -15.29         -64.79          35.44          147.6
    0.2243              -40.96          3.979          26.46           58.7          4.131          -16.4           89.4         -15.29         -64.82          35.46          147.6
    0.2447              -40.96           3.98          26.46           58.7          4.128         -16.39          89.37         -15.29         -64.85          35.48          147.5
    0.2651              -40.95          3.982          26.45           58.7          4.125         -16.39          89.33         -15.29         -64.88          35.51          147.5
    0.2855              -40.94          3.985          26.45           58.7          4.121         -16.38           89.3         -15.28         -64.92          35.53          147.5
    0.3059              -40.94          3.987          26.44           58.7          4.117         -16.38          89.25         -15.28         -64.96          35.56          147.5
    0.3262              -40.93          3.989          26.43           58.7          4.113         -16.37          89.21         -15.28          -65.0          35.59          147.5
    0.3466              -40.92          3.992          26.42           58.7          4.108         -16.37          89.16         -15.28         -65.05          35.63          147.5
     0.367              -40.91          3.995          26.42           58.7          4.103         -16.36          89.11         -15.27          -65.1          35.66          147.5
    0.3874               -40.9          3.998          26.41           58.7          4.097         -16.36          89.05         -15.27         -65.15           35.7          147.5
    0.4078              -40.89          4.002           26.4          58.71          4.091         -16.35          88.98         -15.27         -65.21          35.74          147.5
    0.4282              -40.88          4.006          26.38          58.71          4.085         -16.34          88.91         -15.26         -65.28          35.79          147.5
    0.4486              -40.86           4.01          26.37          58.71          4.077         -16.33          88.83         -15.26         -65.35          35.84          147.5
     0.469              -40.85          4.015          26.36          58.71          4.069         -16.32          88.75         -15.25         -65.43           35.9          147.5
    0.4894              -40.83           4.02          26.34          58.71           4.06         -16.31          88.65         -15.25         -65.52          35.97          147.5
    0.5098              -40.81          4.026          26.33          58.72          4.049          -16.3          88.54         -15.24         -65.62          36.04          147.5
    0.5301              -40.79          4.033          26.31          58.72          4.038         -16.28          88.42         -15.23         -65.73          36.12          147.5
    0.5505              -40.77          4.041          26.28          58.72          4.025         -16.27          88.28         -15.23         -65.86          36.21          147.5
    0.5709              -40.74          4.049          26.26          58.73           4.01         -16.25          88.13         -15.22          -66.0          36.32          147.5
    0.5913              -40.71          4.059          26.23          58.73          3.994         -16.23          87.96         -15.21         -66.16          36.43          147.5
    0.6117              -40.68           4.07           26.2          58.74          3.975         -16.21          87.76         -15.19         -66.35          36.57          147.5
    0.6321              -40.64          4.083          26.16          58.74          3.953         -16.18          87.53         -15.18         -66.56          36.72          147.5
    0.6525              -40.59          4.097          26.12          58.75          3.928         -16.15          87.26         -15.17         -66.81           36.9          147.5
    0.6729              -40.54          4.114          26.07          58.75          3.899         -16.12          86.96         -15.15         -67.09          37.11          147.4
    0.6933              -40.47          4.134          26.01          58.76          3.865         -16.08           86.6         -15.13         -67.43          37.35          147.4
    0.7137               -40.4          4.158          25.94          58.77          3.825         -16.03          86.17          -15.1         -67.82          37.63          147.4
     0.734              -40.31          4.186          25.86          58.79          3.777         -15.97          85.67         -15.07         -68.29          37.97          147.4
    0.7544              -40.21          4.219          25.77           58.8           3.72         -15.91          85.07         -15.04         -68.85          38.37          147.4
    0.7748              -40.08           4.26          25.65          58.82          3.651         -15.82          84.34         -14.99         -69.52          38.86          147.3
    0.7952              -39.93          4.309          25.51          58.84          3.567         -15.72          83.45         -14.94         -70.35          39.46          147.3
    0.8156              -39.74           4.37          25.33          58.87          3.462          -15.6          82.35         -14.88         -71.37           40.2          147.3
     0.836               -39.5          4.447          25.11           58.9          3.332         -15.44          80.98          -14.8         -72.65          41.12          147.2
    0.8564               -39.2          4.543          24.83          58.94          3.168         -15.25          79.25          -14.7         -74.25          42.28          147.1
    0.8768              -38.81          4.665          24.48          58.99           2.96          -15.0          77.05         -14.57         -76.29          43.76          147.0
    0.8972              -38.33          4.821          24.03          59.06          2.694         -14.68          74.24          -14.4          -78.9          45.65          146.9
    0.9176               -37.7          5.021          23.45          59.15          2.352         -14.27          70.64         -14.19         -82.25          48.07          146.8
    0.9379               -36.9          5.277          22.71          59.26          1.915         -13.75          66.03         -13.92         -86.53          51.16          146.6
    0.9583              -35.89          5.599          21.78           59.4          1.366          -13.1          60.24         -13.58         -91.91          55.06          146.3
    0.9787              -34.66          5.991          20.64          59.57         0.6962          -12.3          53.18         -13.17         -98.46           59.8          146.1
    0.9991              -33.24          6.446          19.33          59.77       -0.07974         -11.38           45.0         -12.69         -106.1           65.3          145.7
      1.02               -31.7          6.938           17.9          59.99        -0.9199         -10.37          36.13         -12.17         -114.3          71.25          145.4
      1.04              -30.15           7.43          16.48           60.2          -1.76         -9.372          27.27         -11.65         -122.5           77.2          145.0
      1.06              -28.73          7.884          15.17           60.4         -2.536         -8.447          19.09         -11.17         -130.1           82.7          144.7
     1.081               -27.5          8.277          14.03          60.57         -3.205         -7.649          12.03         -10.75         -136.7          87.44          144.4
     1.101              -26.49          8.598           13.1          60.71         -3.755         -6.994           6.24         -10.41         -142.1          91.33          144.1
     1.121              -25.69          8.854          12.36          60.82         -4.191         -6.473          1.633         -10.14         -146.3          94.43          143.9
     1.142              -25.07          9.055          11.78          60.91         -4.533         -6.065         -1.974         -9.929         -149.7          96.85          143.8
     1.162              -24.58          9.211          11.33          60.98           -4.8         -5.747         -4.785         -9.764         -152.3          98.74          143.7
     1.183              -24.19          9.333          10.98          61.03         -5.008         -5.499         -6.981         -9.635         -154.3          100.2          143.6
     1.203              -23.89          9.429           10.7          61.07         -5.172         -5.304         -8.708         -9.534         -155.9          101.4          143.5
     1.223              -23.66          9.505          10.48          61.11         -5.302         -5.149         -10.08         -9.453         -157.2          102.3          143.5
     1.244              -23.46          9.566           10.3          61.13         -5.406         -5.024         -11.18         -9.389         -158.2          103.0          143.4
     1.264              -23.31          9.616          10.16          61.16         -5.491         -4.924         -12.07         -9.336         -159.1          103.6          143.4
     1.285              -23.18          9.656          10.04          61.17          -5.56         -4.841          -12.8         -9.294         -159.7          104.1          143.3
     1.305              -23.08           9.69          9.945          61.19         -5.617         -4.773          -13.4         -9.258         -160.3          104.5          143.3
